<?xml version="1.0" encoding="utf-8"?>
<!-- Generator: Adobe Illustrator 14.0.0, SVG Export Plug-In  -->
<!DOCTYPE svg PUBLIC "-//W3C//DTD SVG 1.1 Tiny//EN" "http://www.w3.org/Graphics/SVG/1.1/DTD/svg11-tiny.dtd" [
	<!ENTITY ns_flows "http://ns.adobe.com/Flows/1.0/">
]>
<svg version="1.1" baseProfile="tiny"
	 xmlns="http://www.w3.org/2000/svg" xmlns:xlink="http://www.w3.org/1999/xlink" xmlns:a="http://ns.adobe.com/AdobeSVGViewerExtensions/3.0/"
	 x="0px" y="0px" width="344px" height="95px" viewBox="-1 -1 344 95" xml:space="preserve">
<defs>
</defs>
<path fill="#FFFFFF" d="M184.859,46.722h-12.639v8.155h14.117v6.368h-21.862V26.9h21.147v6.369h-13.402v7.134h12.639V46.722z"/>
<path fill="#FFFFFF" d="M191.582,25.065h7.747v36.18h-7.747V25.065z"/>
<path fill="#FFFFFF" d="M211.559,51.259c0.203,3.209,3.412,4.737,7.032,4.737c2.65,0,4.789-0.356,6.879-1.068l1.02,5.248
	c-2.55,1.069-5.656,1.579-9.021,1.579c-8.459,0-13.3-4.892-13.3-12.689c0-6.318,3.924-13.299,12.586-13.299
	c8.052,0,11.11,6.266,11.11,12.435c0,1.324-0.153,2.496-0.256,3.058H211.559z M220.679,45.957c0-1.885-0.814-5.044-4.382-5.044
	c-3.262,0-4.586,3.007-4.789,5.044H220.679z"/>
<path fill="#FFFFFF" d="M251.202,60.583c-1.377,0.662-3.976,1.172-6.931,1.172c-8.051,0-13.199-4.942-13.199-12.74
	c0-7.287,4.994-13.248,14.268-13.248c2.039,0,4.282,0.357,5.913,0.967l-1.225,5.76c-0.917-0.408-2.292-0.766-4.331-0.766
	c-4.075,0-6.727,2.905-6.676,6.981c0,4.536,3.059,6.981,6.83,6.981c1.833,0,3.26-0.306,4.433-0.813L251.202,60.583z"/>
<path fill="#FFFFFF" d="M264.958,29.601v6.726h5.553v5.707h-5.553v9.021c0,3.007,0.763,4.384,3.058,4.384
	c1.068,0,1.58-0.053,2.293-0.204l0.051,5.859c-0.97,0.356-2.854,0.662-4.995,0.662c-2.496,0-4.586-0.866-5.859-2.14
	c-1.427-1.479-2.142-3.874-2.142-7.389V42.033h-3.312v-5.707h3.312v-4.637L264.958,29.601z"/>
<path fill="#FFFFFF" d="M282.995,29.396c0,2.141-1.581,3.873-4.18,3.873c-2.446,0-4.025-1.732-4.025-3.873
	c0-2.191,1.63-3.873,4.128-3.873C281.414,25.523,282.944,27.205,282.995,29.396z M274.994,61.245V36.326h7.745v24.919H274.994z"/>
<path fill="#FFFFFF" d="M313.567,48.507c0,9.119-6.472,13.299-13.147,13.299c-7.288,0-12.893-4.791-12.893-12.842
	c0-8.103,5.3-13.249,13.352-13.249C308.471,35.715,313.567,40.964,313.567,48.507z M295.528,48.762c0,4.28,1.783,7.49,5.097,7.49
	c3.058,0,4.942-3.007,4.942-7.543c0-3.668-1.427-7.439-4.942-7.439C296.955,41.27,295.528,45.091,295.528,48.762z"/>
<path fill="#FFFFFF" d="M318.356,44.275c0-3.108-0.104-5.707-0.206-7.949h6.728l0.356,3.466h0.153
	c1.021-1.631,3.516-4.025,7.694-4.025c5.096,0,8.918,3.414,8.918,10.752v14.727h-7.746V47.435c0-3.209-1.12-5.402-3.924-5.402
	c-2.141,0-3.415,1.479-3.974,2.906c-0.206,0.51-0.256,1.223-0.256,1.937v14.37h-7.744V44.275z"/>
<path fill="#FFFFFF" d="M29.811,48.098c-0.153-4.128-0.306-9.121-0.306-14.115h-0.102c-1.121,4.382-2.548,9.273-3.873,13.299
	l-4.179,13.402h-6.064l-3.669-13.249c-1.121-4.077-2.242-8.968-3.108-13.452H8.408c-0.152,4.637-0.356,9.937-0.561,14.219
	L7.185,61.245H0l2.191-34.346h10.344l3.364,11.466c1.121,3.974,2.14,8.254,2.904,12.28h0.204c0.918-3.974,2.09-8.508,3.262-12.33
	l3.618-11.416h10.192l1.834,34.346h-7.542L29.811,48.098z"/>
<path fill="#FFFFFF" d="M49.426,36.326l3.72,12.281c0.407,1.426,0.917,3.312,1.223,4.638h0.204c0.306-1.375,0.714-3.212,1.071-4.688
	l3.108-12.231h8.256l-5.81,16.408c-3.567,9.938-5.963,13.862-8.765,16.358c-2.65,2.345-5.503,3.212-7.44,3.414l-1.681-6.522
	c0.968-0.204,2.191-0.662,3.362-1.326c1.172-0.609,2.498-1.885,3.21-3.107c0.255-0.409,0.408-0.816,0.408-1.122
	c0-0.304-0.051-0.662-0.306-1.273l-9.172-22.829H49.426z"/>
<path fill="#FFFFFF" d="M106.155,0.938C83.124,5.833,68.369,28.554,73.264,51.586c4.896,23.03,27.616,37.785,50.648,32.89
	c23.031-4.896,37.787-27.614,32.89-50.646S129.186-3.956,106.155,0.938z"/>
<path fill="#144990" d="M147.585,19.334c-9-12.52-24.837-19.237-40.885-15.826C90.653,6.92,78.917,19.498,75.787,34.595
	L147.585,19.334z"/>
<path fill="#E01B22" d="M92.139,64.027L82.48,66.08c3.337,4.643,7.618,8.483,12.499,11.307L92.139,64.027z"/>
<path fill="#E01B22" d="M102.635,61.796l4.285,20.152c3.594,0.745,7.332,1.009,11.122,0.718l-4.91-23.1L102.635,61.796z"/>
<path fill="#E01B22" d="M123.627,57.334l4.908,23.093c3.579-1.277,6.894-3.021,9.873-5.164l-4.285-20.16L123.627,57.334z"/>
<path fill="#E01B22" d="M144.619,52.873l2.841,13.367c3.311-4.571,5.658-9.821,6.818-15.42L144.619,52.873z"/>
<path fill="#000100" d="M82.121,38.152l13.531-2.875l0.977,4.593l-7.875,1.674l0.83,3.906l7.405-1.574l0.97,4.562l-7.405,1.573
	l1.701,8l-5.657,1.202L82.121,38.152z"/>
<path fill="#000100" d="M106.188,49.953l-0.152,5.13l-5.843,1.24l1.647-22.362l7.5-1.595l10.758,19.728l-6.095,1.295l-2.378-4.59
	L106.188,49.953z M109.954,44.779l-1.773-3.577c-0.563-1.121-1.336-2.753-1.914-3.937l-0.063,0.013
	c-0.046,1.316,0.013,3.133-0.048,4.386l-0.108,3.943L109.954,44.779z"/>
<path fill="#000100" d="M123.965,29.257l4.477,21.062l-5.656,1.204l-4.477-21.063L123.965,29.257z"/>
<path fill="#000100" d="M127.898,28.715c1.542-0.588,3.909-1.288,6.72-1.886c3.219-0.685,5.624-0.738,7.47,0.111
	c1.564,0.745,2.632,2.086,3.07,4.148c0.558,2.624-1.012,4.917-2.542,5.864l0.026,0.125c1.532,0.295,2.568,1.479,3.485,3.179
	c1.114,2.017,2.452,4.934,3.031,5.659l-5.78,1.228c-0.446-0.557-1.323-2.07-2.499-4.53c-1.1-2.412-1.994-2.777-3.744-2.405
	l-0.907,0.192l1.681,7.905l-5.593,1.19L127.898,28.715z M135.373,36.37l1.469-0.312c2.125-0.452,3.118-1.773,2.787-3.336
	c-0.34-1.593-1.557-2.249-3.439-1.882c-1.062,0.226-1.612,0.408-1.879,0.53L135.373,36.37z"/>
<polygon fill="#FFFFFF" points="110.382,20.935 107.313,24.357 107.806,19.788 103.603,17.929 108.1,16.981 108.569,12.411 
	110.86,16.396 115.352,15.431 112.27,18.839 114.575,22.812 "/>
<polygon fill="#FFFFFF" points="129.127,16.951 126.06,20.373 126.55,15.803 122.347,13.943 126.844,12.998 127.316,8.427 
	129.604,12.412 134.097,11.446 131.013,14.854 133.322,18.829 "/>
<polygon fill="#FFFFFF" points="91.637,24.92 88.57,28.341 89.061,23.772 84.858,21.912 89.355,20.966 89.826,16.396 92.114,20.379 
	96.607,19.415 93.525,22.822 95.832,26.798 "/>
</svg>
