<?xml version="1.0" encoding="utf-8"?>
<!-- Generator: Adobe Illustrator 14.0.0, SVG Export Plug-In  -->
<!DOCTYPE svg PUBLIC "-//W3C//DTD SVG 1.1//EN" "http://www.w3.org/Graphics/SVG/1.1/DTD/svg11.dtd" [
	<!ENTITY ns_flows "http://ns.adobe.com/Flows/1.0/">
]>
<svg version="1.1"
	 xmlns="http://www.w3.org/2000/svg" xmlns:xlink="http://www.w3.org/1999/xlink" xmlns:a="http://ns.adobe.com/AdobeSVGViewerExtensions/3.0/"
	 x="0px" y="0px" width="47px" height="45px" viewBox="-1 -1 47 45" enable-background="new -1 -1 47 45" xml:space="preserve">
<defs>
</defs>
<linearGradient id="SVGID_1_" gradientUnits="userSpaceOnUse" x1="22.5" y1="0" x2="22.5" y2="42.8872">
	<stop  offset="0" style="stop-color:#EFE458"/>
	<stop  offset="1" style="stop-color:#FECC50"/>
</linearGradient>
<path fill="url(#SVGID_1_)" d="M0.05,16.303c0.161-0.492,0.644-0.792,1.449-0.899l13.58-1.986L21.17,1.101
	C21.528,0.367,21.965,0,22.485,0s0.967,0.367,1.342,1.101l6.092,12.318l13.58,1.986c0.805,0.107,1.287,0.407,1.449,0.899
	c0.16,0.493-0.045,1.033-0.617,1.624l-9.85,9.553l2.309,13.525c0.143,0.807,0.004,1.365-0.416,1.678
	c-0.421,0.312-0.998,0.264-1.731-0.146l-12.13-6.361l-12.157,6.361c-0.734,0.41-1.311,0.459-1.731,0.146
	c-0.42-0.312-0.56-0.871-0.416-1.678l2.308-13.525l-9.769-9.553C0.121,17.336-0.111,16.796,0.05,16.303z"/>
<g>
	<path fill="#F2CC50" d="M22.485,0.5c0.314,0,0.616,0.279,0.894,0.822L29.47,13.64l0.116,0.235l0.26,0.038L43.432,15.9
		c0.595,0.079,0.944,0.268,1.04,0.558c0.098,0.3-0.07,0.677-0.489,1.11l-9.85,9.553l-0.189,0.184l0.044,0.26l2.31,13.528
		c0.106,0.601,0.031,1.001-0.222,1.189c-0.096,0.071-0.202,0.104-0.336,0.104c-0.228,0-0.515-0.097-0.865-0.292l-12.13-6.361
		l-0.232-0.122l-0.232,0.121l-12.169,6.368c-0.339,0.189-0.626,0.286-0.854,0.286c-0.133,0-0.239-0.033-0.334-0.104
		c-0.254-0.188-0.329-0.589-0.222-1.192l2.308-13.525l0.044-0.258l-0.188-0.184l-9.775-9.56c-0.47-0.443-0.66-0.815-0.565-1.105
		c0.095-0.292,0.445-0.479,1.046-0.56l13.58-1.986l0.26-0.038l0.116-0.235L21.62,1.319C21.885,0.776,22.176,0.5,22.485,0.5
		 M22.485,0c-0.52,0-0.957,0.367-1.314,1.101l-6.092,12.318l-13.58,1.986c-0.805,0.107-1.288,0.407-1.449,0.899
		c-0.161,0.493,0.071,1.033,0.698,1.624l9.769,9.553L8.208,41.006c-0.144,0.807-0.004,1.365,0.416,1.678
		c0.182,0.135,0.393,0.203,0.633,0.203c0.315,0,0.682-0.117,1.098-0.35l12.157-6.361l12.13,6.361c0.416,0.232,0.782,0.35,1.098,0.35
		c0.24,0,0.452-0.068,0.634-0.203c0.42-0.312,0.559-0.871,0.416-1.678L34.481,27.48l9.85-9.553c0.572-0.591,0.777-1.131,0.617-1.624
		c-0.162-0.492-0.645-0.792-1.449-0.899l-13.58-1.986L23.827,1.101C23.452,0.367,23.004,0,22.485,0L22.485,0z"/>
</g>
</svg>
